<svg xmlns="http://www.w3.org/2000/svg" width="1048" height="827" viewBox="0 0 1048 827" version="1.1"><path d="M 216.153 332.227 C 207.821 353.539, 200.916 381.322, 197.819 406 C 196.101 419.691, 196.101 460.309, 197.819 474 C 209.046 563.464, 257.217 641.595, 333 693.256 C 378.790 724.471, 429.959 743.182, 487 749.571 C 502.786 751.339, 540.651 751.580, 555.500 750.006 C 605.202 744.738, 646.833 731.698, 688.954 708.204 C 699.936 702.079, 724 686.368, 724 685.324 C 724 685.048, 720.528 679.033, 716.284 671.957 L 708.568 659.092 705.534 661.361 C 662.319 693.672, 609.806 714.059, 554.500 719.995 C 539.684 721.586, 502.781 721.319, 487.564 719.511 C 359.480 704.299, 256.263 612.224, 232.521 492 C 223.856 448.126, 226.292 403.140, 239.684 359.706 L 242.396 350.911 321.948 351.267 C 394.966 351.594, 402.073 351.773, 408.471 353.444 C 437.090 360.917, 459.199 378.270, 470.973 402.500 C 477.849 416.650, 479.433 423.643, 479.470 440 C 479.493 450.184, 479.035 455.219, 477.608 460.500 C 468.626 493.735, 443.393 517.682, 408 526.561 C 403.444 527.704, 394.996 528.349, 379.750 528.717 L 358 529.242 358 456.095 L 358 382.948 342.750 383.224 L 327.500 383.500 327.500 470.500 L 327.500 557.500 363.500 557.467 C 402.505 557.431, 409.052 556.789, 426.500 551.286 C 450.688 543.657, 475.607 525.320, 489.821 504.690 C 497.015 494.249, 503.565 480.094, 506.671 468.277 C 510.120 455.154, 510.991 433.580, 508.587 420.790 C 499.467 372.258, 462.837 335.947, 411.780 324.826 C 401.631 322.615, 400.341 322.582, 310.848 322.236 L 220.197 321.885 216.153 332.227" stroke="none" fill="#844c0c" fill-rule="evenodd"/><path d="M 511 128.675 C 506.325 128.830, 497.325 129.442, 491 130.035 C 437.045 135.091, 387.418 152.068, 341 181.347 C 306.582 203.057, 272.584 235.743, 249.827 269 C 242.543 279.646, 234 293.320, 234 294.334 C 234 294.700, 242.034 295, 251.853 295 L 269.707 295 274.334 288.041 C 284.980 272.031, 298.098 256.667, 315 240.410 C 361.752 195.444, 426.002 166.463, 493.456 159.913 C 511.463 158.165, 553.059 159.265, 569.500 161.925 C 636.306 172.731, 692.868 201.532, 738.734 248.095 C 830.474 341.232, 844.614 481.380, 773.187 589.587 C 766.369 599.916, 753.269 617.018, 752.218 616.962 C 751.823 616.941, 733.725 586.738, 712 549.844 L 672.500 482.765 656.114 483.351 C 647.102 483.674, 639.514 484.153, 639.252 484.415 C 638.989 484.678, 642.715 491.554, 647.530 499.696 C 674.558 545.390, 684.579 562.349, 713.002 610.500 C 730.208 639.650, 744.903 664.396, 745.657 665.492 C 746.951 667.373, 747.817 666.676, 761.263 652.939 C 796.028 617.423, 820.732 577.219, 835.294 532.460 C 877.137 403.853, 828.069 265.243, 712.886 186.673 C 700.611 178.300, 680.130 166.370, 670.500 161.984 C 667.750 160.732, 662.575 158.380, 659 156.759 C 616.445 137.458, 561.366 127.007, 511 128.675 M 561.679 322.654 C 561.306 323.028, 561 329.558, 561 337.167 L 561 351 606.951 351 C 637.165 351, 654.716 351.385, 658.201 352.124 C 670.358 354.704, 680.083 362.496, 685.183 373.744 C 687.939 379.822, 688.153 381.087, 687.829 389.428 C 687.550 396.633, 686.942 399.632, 684.876 404 C 679.885 414.550, 669.053 422.738, 657.114 424.986 C 653.973 425.577, 632.813 426, 606.356 426 L 560.986 426 561.243 491.750 L 561.500 557.500 576.250 557.577 L 591 557.654 591 506.425 L 591 455.196 625.250 454.754 C 656.043 454.357, 660.273 454.101, 667.154 452.221 C 691.715 445.513, 710.555 427.101, 716.659 403.841 C 719.293 393.802, 718.811 379.271, 715.518 369.448 C 712.082 359.201, 708.471 352.967, 701.529 345.296 C 690.619 333.239, 674.029 324.905, 657.272 323.063 C 647.997 322.043, 562.655 321.678, 561.679 322.654" stroke="none" fill="#e38c1c" fill-rule="evenodd"/></svg>